<svg id="visual" viewBox="0 0 900 600" width="900" height="600" xmlns="http://www.w3.org/2000/svg" xmlns:xlink="http://www.w3.org/1999/xlink" version="1.1"><path d="M0 181L90 127L180 139L270 211L360 205L450 163L540 187L630 193L720 187L810 151L900 133L900 0L810 0L720 0L630 0L540 0L450 0L360 0L270 0L180 0L90 0L0 0Z" fill="#18c3f7"></path><path d="M0 229L90 157L180 211L270 247L360 235L450 211L540 259L630 241L720 217L810 187L900 193L900 131L810 149L720 185L630 191L540 185L450 161L360 203L270 209L180 137L90 125L0 179Z" fill="#00b8fb"></path><path d="M0 331L90 235L180 295L270 325L360 319L450 307L540 343L630 355L720 313L810 289L900 253L900 191L810 185L720 215L630 239L540 257L450 209L360 233L270 245L180 209L90 155L0 227Z" fill="#00adfe"></path><path d="M0 373L90 295L180 373L270 403L360 379L450 349L540 385L630 421L720 361L810 361L900 337L900 251L810 287L720 311L630 353L540 341L450 305L360 317L270 323L180 293L90 233L0 329Z" fill="#00a0ff"></path><path d="M0 493L90 499L180 487L270 493L360 481L450 481L540 493L630 511L720 463L810 469L900 487L900 335L810 359L720 359L630 419L540 383L450 347L360 377L270 401L180 371L90 293L0 371Z" fill="#0092ff"></path><path d="M0 565L90 571L180 565L270 553L360 547L450 559L540 571L630 559L720 547L810 553L900 559L900 485L810 467L720 461L630 509L540 491L450 479L360 479L270 491L180 485L90 497L0 491Z" fill="#0083ff"></path><path d="M0 601L90 601L180 601L270 601L360 601L450 601L540 601L630 601L720 601L810 601L900 601L900 557L810 551L720 545L630 557L540 569L450 557L360 545L270 551L180 563L90 569L0 563Z" fill="#2173fd"></path></svg>